<svg id="wave" style="transform:rotate(0deg); transition: 0.3s" viewBox="0 0 1440 320" version="1.1" xmlns="http://www.w3.org/2000/svg"><defs><linearGradient id="sw-gradient-0" x1="0" x2="0" y1="1" y2="0"><stop stop-color="rgba(0, 0, 0, 1)" offset="0%"></stop><stop stop-color="rgba(8.167, 246.213, 0, 1)" offset="100%"></stop></linearGradient></defs><path style="transform:translate(0, 0px); opacity:1" fill="url(#sw-gradient-0)" d="M0,0L16,5.3C32,11,64,21,96,64C128,107,160,181,192,181.3C224,181,256,107,288,106.7C320,107,352,181,384,202.7C416,224,448,192,480,186.7C512,181,544,203,576,176C608,149,640,75,672,74.7C704,75,736,149,768,149.3C800,149,832,75,864,58.7C896,43,928,85,960,106.7C992,128,1024,128,1056,133.3C1088,139,1120,149,1152,176C1184,203,1216,245,1248,218.7C1280,192,1312,96,1344,80C1376,64,1408,128,1440,165.3C1472,203,1504,213,1536,218.7C1568,224,1600,224,1632,197.3C1664,171,1696,117,1728,96C1760,75,1792,85,1824,112C1856,139,1888,181,1920,202.7C1952,224,1984,224,2016,208C2048,192,2080,160,2112,165.3C2144,171,2176,213,2208,208C2240,203,2272,149,2288,122.7L2304,96L2304,320L2288,320C2272,320,2240,320,2208,320C2176,320,2144,320,2112,320C2080,320,2048,320,2016,320C1984,320,1952,320,1920,320C1888,320,1856,320,1824,320C1792,320,1760,320,1728,320C1696,320,1664,320,1632,320C1600,320,1568,320,1536,320C1504,320,1472,320,1440,320C1408,320,1376,320,1344,320C1312,320,1280,320,1248,320C1216,320,1184,320,1152,320C1120,320,1088,320,1056,320C1024,320,992,320,960,320C928,320,896,320,864,320C832,320,800,320,768,320C736,320,704,320,672,320C640,320,608,320,576,320C544,320,512,320,480,320C448,320,416,320,384,320C352,320,320,320,288,320C256,320,224,320,192,320C160,320,128,320,96,320C64,320,32,320,16,320L0,320Z"></path><defs><linearGradient id="sw-gradient-1" x1="0" x2="0" y1="1" y2="0"><stop stop-color="rgba(0, 0, 0, 1)" offset="0%"></stop><stop stop-color="rgba(0, 255, 0.18, 1)" offset="100%"></stop></linearGradient></defs><path style="transform:translate(0, 50px); opacity:0.9" fill="url(#sw-gradient-1)" d="M0,96L16,80C32,64,64,32,96,32C128,32,160,64,192,80C224,96,256,96,288,106.7C320,117,352,139,384,165.3C416,192,448,224,480,229.3C512,235,544,213,576,218.7C608,224,640,256,672,224C704,192,736,96,768,96C800,96,832,192,864,208C896,224,928,160,960,138.7C992,117,1024,139,1056,133.3C1088,128,1120,96,1152,117.3C1184,139,1216,213,1248,250.7C1280,288,1312,288,1344,240C1376,192,1408,96,1440,58.7C1472,21,1504,43,1536,74.7C1568,107,1600,149,1632,165.3C1664,181,1696,171,1728,186.7C1760,203,1792,245,1824,240C1856,235,1888,181,1920,170.7C1952,160,1984,192,2016,208C2048,224,2080,224,2112,234.7C2144,245,2176,267,2208,229.3C2240,192,2272,96,2288,48L2304,0L2304,320L2288,320C2272,320,2240,320,2208,320C2176,320,2144,320,2112,320C2080,320,2048,320,2016,320C1984,320,1952,320,1920,320C1888,320,1856,320,1824,320C1792,320,1760,320,1728,320C1696,320,1664,320,1632,320C1600,320,1568,320,1536,320C1504,320,1472,320,1440,320C1408,320,1376,320,1344,320C1312,320,1280,320,1248,320C1216,320,1184,320,1152,320C1120,320,1088,320,1056,320C1024,320,992,320,960,320C928,320,896,320,864,320C832,320,800,320,768,320C736,320,704,320,672,320C640,320,608,320,576,320C544,320,512,320,480,320C448,320,416,320,384,320C352,320,320,320,288,320C256,320,224,320,192,320C160,320,128,320,96,320C64,320,32,320,16,320L0,320Z"></path><defs><linearGradient id="sw-gradient-2" x1="0" x2="0" y1="1" y2="0"><stop stop-color="rgba(0, 0, 0, 1)" offset="0%"></stop><stop stop-color="rgba(0, 218.892, 14.984, 1)" offset="100%"></stop></linearGradient></defs><path style="transform:translate(0, 100px); opacity:0.8" fill="url(#sw-gradient-2)" d="M0,32L16,37.3C32,43,64,53,96,85.3C128,117,160,171,192,197.3C224,224,256,224,288,208C320,192,352,160,384,122.7C416,85,448,43,480,21.3C512,0,544,0,576,48C608,96,640,192,672,224C704,256,736,224,768,208C800,192,832,192,864,165.3C896,139,928,85,960,53.3C992,21,1024,11,1056,42.7C1088,75,1120,149,1152,176C1184,203,1216,181,1248,170.7C1280,160,1312,160,1344,170.7C1376,181,1408,203,1440,176C1472,149,1504,75,1536,80C1568,85,1600,171,1632,208C1664,245,1696,235,1728,224C1760,213,1792,203,1824,165.3C1856,128,1888,64,1920,42.7C1952,21,1984,43,2016,80C2048,117,2080,171,2112,197.3C2144,224,2176,224,2208,186.7C2240,149,2272,75,2288,37.3L2304,0L2304,320L2288,320C2272,320,2240,320,2208,320C2176,320,2144,320,2112,320C2080,320,2048,320,2016,320C1984,320,1952,320,1920,320C1888,320,1856,320,1824,320C1792,320,1760,320,1728,320C1696,320,1664,320,1632,320C1600,320,1568,320,1536,320C1504,320,1472,320,1440,320C1408,320,1376,320,1344,320C1312,320,1280,320,1248,320C1216,320,1184,320,1152,320C1120,320,1088,320,1056,320C1024,320,992,320,960,320C928,320,896,320,864,320C832,320,800,320,768,320C736,320,704,320,672,320C640,320,608,320,576,320C544,320,512,320,480,320C448,320,416,320,384,320C352,320,320,320,288,320C256,320,224,320,192,320C160,320,128,320,96,320C64,320,32,320,16,320L0,320Z"></path></svg>