<svg id="wave" style="transform:rotate(180deg); transition: 0.3s" viewBox="0 0 1440 320" version="1.1" xmlns="http://www.w3.org/2000/svg"><defs><linearGradient id="sw-gradient-0" x1="0" x2="0" y1="1" y2="0"><stop stop-color="rgba(0, 0, 0, 1)" offset="0%"></stop><stop stop-color="rgba(8.167, 246.213, 0, 1)" offset="100%"></stop></linearGradient></defs><path style="transform:translate(0, 0px); opacity:1" fill="url(#sw-gradient-0)" d="M0,0L24,5.3C48,11,96,21,144,64C192,107,240,181,288,181.3C336,181,384,107,432,106.7C480,107,528,181,576,202.7C624,224,672,192,720,186.7C768,181,816,203,864,176C912,149,960,75,1008,74.7C1056,75,1104,149,1152,149.3C1200,149,1248,75,1296,58.7C1344,43,1392,85,1440,106.7C1488,128,1536,128,1584,133.3C1632,139,1680,149,1728,176C1776,203,1824,245,1872,218.7C1920,192,1968,96,2016,80C2064,64,2112,128,2160,165.3C2208,203,2256,213,2304,218.7C2352,224,2400,224,2448,197.3C2496,171,2544,117,2592,96C2640,75,2688,85,2736,112C2784,139,2832,181,2880,202.7C2928,224,2976,224,3024,208C3072,192,3120,160,3168,165.3C3216,171,3264,213,3312,208C3360,203,3408,149,3432,122.7L3456,96L3456,320L3432,320C3408,320,3360,320,3312,320C3264,320,3216,320,3168,320C3120,320,3072,320,3024,320C2976,320,2928,320,2880,320C2832,320,2784,320,2736,320C2688,320,2640,320,2592,320C2544,320,2496,320,2448,320C2400,320,2352,320,2304,320C2256,320,2208,320,2160,320C2112,320,2064,320,2016,320C1968,320,1920,320,1872,320C1824,320,1776,320,1728,320C1680,320,1632,320,1584,320C1536,320,1488,320,1440,320C1392,320,1344,320,1296,320C1248,320,1200,320,1152,320C1104,320,1056,320,1008,320C960,320,912,320,864,320C816,320,768,320,720,320C672,320,624,320,576,320C528,320,480,320,432,320C384,320,336,320,288,320C240,320,192,320,144,320C96,320,48,320,24,320L0,320Z"></path><defs><linearGradient id="sw-gradient-1" x1="0" x2="0" y1="1" y2="0"><stop stop-color="rgba(0, 0, 0, 1)" offset="0%"></stop><stop stop-color="rgba(0, 255, 0.18, 1)" offset="100%"></stop></linearGradient></defs><path style="transform:translate(0, 50px); opacity:0.9" fill="url(#sw-gradient-1)" d="M0,96L24,80C48,64,96,32,144,32C192,32,240,64,288,80C336,96,384,96,432,106.7C480,117,528,139,576,165.3C624,192,672,224,720,229.3C768,235,816,213,864,218.7C912,224,960,256,1008,224C1056,192,1104,96,1152,96C1200,96,1248,192,1296,208C1344,224,1392,160,1440,138.7C1488,117,1536,139,1584,133.3C1632,128,1680,96,1728,117.3C1776,139,1824,213,1872,250.7C1920,288,1968,288,2016,240C2064,192,2112,96,2160,58.7C2208,21,2256,43,2304,74.7C2352,107,2400,149,2448,165.3C2496,181,2544,171,2592,186.7C2640,203,2688,245,2736,240C2784,235,2832,181,2880,170.7C2928,160,2976,192,3024,208C3072,224,3120,224,3168,234.7C3216,245,3264,267,3312,229.3C3360,192,3408,96,3432,48L3456,0L3456,320L3432,320C3408,320,3360,320,3312,320C3264,320,3216,320,3168,320C3120,320,3072,320,3024,320C2976,320,2928,320,2880,320C2832,320,2784,320,2736,320C2688,320,2640,320,2592,320C2544,320,2496,320,2448,320C2400,320,2352,320,2304,320C2256,320,2208,320,2160,320C2112,320,2064,320,2016,320C1968,320,1920,320,1872,320C1824,320,1776,320,1728,320C1680,320,1632,320,1584,320C1536,320,1488,320,1440,320C1392,320,1344,320,1296,320C1248,320,1200,320,1152,320C1104,320,1056,320,1008,320C960,320,912,320,864,320C816,320,768,320,720,320C672,320,624,320,576,320C528,320,480,320,432,320C384,320,336,320,288,320C240,320,192,320,144,320C96,320,48,320,24,320L0,320Z"></path><defs><linearGradient id="sw-gradient-2" x1="0" x2="0" y1="1" y2="0"><stop stop-color="rgba(0, 0, 0, 1)" offset="0%"></stop><stop stop-color="rgba(0, 218.892, 14.984, 1)" offset="100%"></stop></linearGradient></defs><path style="transform:translate(0, 100px); opacity:0.8" fill="url(#sw-gradient-2)" d="M0,32L24,37.3C48,43,96,53,144,85.3C192,117,240,171,288,197.3C336,224,384,224,432,208C480,192,528,160,576,122.7C624,85,672,43,720,21.3C768,0,816,0,864,48C912,96,960,192,1008,224C1056,256,1104,224,1152,208C1200,192,1248,192,1296,165.3C1344,139,1392,85,1440,53.3C1488,21,1536,11,1584,42.7C1632,75,1680,149,1728,176C1776,203,1824,181,1872,170.7C1920,160,1968,160,2016,170.7C2064,181,2112,203,2160,176C2208,149,2256,75,2304,80C2352,85,2400,171,2448,208C2496,245,2544,235,2592,224C2640,213,2688,203,2736,165.3C2784,128,2832,64,2880,42.7C2928,21,2976,43,3024,80C3072,117,3120,171,3168,197.3C3216,224,3264,224,3312,186.7C3360,149,3408,75,3432,37.3L3456,0L3456,320L3432,320C3408,320,3360,320,3312,320C3264,320,3216,320,3168,320C3120,320,3072,320,3024,320C2976,320,2928,320,2880,320C2832,320,2784,320,2736,320C2688,320,2640,320,2592,320C2544,320,2496,320,2448,320C2400,320,2352,320,2304,320C2256,320,2208,320,2160,320C2112,320,2064,320,2016,320C1968,320,1920,320,1872,320C1824,320,1776,320,1728,320C1680,320,1632,320,1584,320C1536,320,1488,320,1440,320C1392,320,1344,320,1296,320C1248,320,1200,320,1152,320C1104,320,1056,320,1008,320C960,320,912,320,864,320C816,320,768,320,720,320C672,320,624,320,576,320C528,320,480,320,432,320C384,320,336,320,288,320C240,320,192,320,144,320C96,320,48,320,24,320L0,320Z"></path></svg>